<?xml version="1.0" standalone="no"?>
<!DOCTYPE svg PUBLIC "-//W3C//DTD SVG 20010904//EN"
 "http://www.w3.org/TR/2001/REC-SVG-20010904/DTD/svg10.dtd">
<svg version="1.0" xmlns="http://www.w3.org/2000/svg"
 width="2048.000000pt" height="2048.000000pt" viewBox="0 0 2048.000000 2048.000000"
 preserveAspectRatio="xMidYMid meet">

<g transform="translate(0.000000,2048.000000) scale(0.100000,-0.100000)"
fill="#000000" stroke="none">
<path d="M9775 19809 c-2738 -135 -5266 -1421 -6992 -3556 -1551 -1918 -2297
-4358 -2088 -6828 232 -2739 1625 -5234 3845 -6884 1992 -1482 4500 -2127
6980 -1795 2544 340 4835 1687 6390 3756 1408 1873 2074 4201 1875 6553 -232
2739 -1625 5233 -3845 6884 -1650 1228 -3671 1890 -5735 1879 -148 0 -342 -5
-430 -9z m1272 -3171 l23 -21 0 -679 0 -678 1298 2 1297 3 3 679 c2 615 4 681
19 698 15 17 52 18 716 18 l701 0 23 -22 23 -21 0 -679 0 -678 797 0 797 0 23
-22 23 -21 0 -616 0 -615 -22 -23 -21 -23 -799 0 -798 0 0 -672 0 -672 -22
-23 -21 -23 -696 0 -695 0 -23 22 -23 21 0 674 0 673 -1300 0 -1300 0 0 -672
0 -672 -22 -23 -21 -23 -696 0 -695 0 -28 27 -28 27 0 668 0 668 -793 0 -793
0 -27 28 -27 28 -2 383 -3 382 -155 -173 c-85 -95 -315 -335 -512 -533 l-357
-360 45 -145 c357 -1163 589 -2498 678 -3910 33 -522 40 -772 40 -1450 0
-1087 -43 -1768 -154 -2405 -145 -832 -376 -1341 -720 -1584 -286 -202 -631
-281 -1103 -253 -316 19 -586 59 -939 138 -174 39 -436 109 -446 119 -7 7 -30
902 -31 1160 l0 130 28 22 27 22 120 -35 c433 -126 900 -214 1129 -214 105 0
160 25 236 107 203 220 333 806 389 1754 21 347 30 994 20 1399 -6 217 -13
415 -16 438 l-5 44 -167 -164 c-525 -515 -1057 -928 -1604 -1248 -155 -90
-159 -91 -193 -79 -19 7 -36 18 -39 23 -2 6 -121 287 -265 625 -144 338 -260
615 -259 616 2 1 55 33 118 70 158 95 478 310 646 434 540 402 1037 860 1498
1379 l108 123 -42 247 c-47 279 -124 672 -176 902 -36 162 -154 643 -159 648
-2 2 -101 -70 -222 -161 -353 -265 -689 -495 -996 -681 -112 -69 -132 -77
-161 -72 -19 4 -38 12 -43 19 -12 15 -574 1239 -571 1242 2 1 107 66 233 145
350 218 587 378 885 599 228 168 390 299 390 315 0 18 -147 374 -233 566 -147
329 -311 651 -477 941 -109 191 -180 131 598 515 360 179 656 323 657 322 1
-2 34 -58 73 -125 118 -204 279 -513 409 -788 67 -143 133 -282 146 -308 l22
-48 196 208 c400 425 732 817 1013 1195 l78 106 217 -125 c119 -69 372 -215
562 -325 343 -197 347 -200 353 -236 5 -34 -2 -46 -156 -252 -89 -118 -192
-254 -230 -302 -37 -48 -68 -90 -68 -93 0 -3 277 -5 615 -5 l615 0 0 677 0
677 22 23 21 23 701 0 700 0 23 -22z m5430 -4540 l23 -21 0 -4111 0 -4110 -22
-23 -21 -23 -701 0 -700 0 -23 22 -23 21 0 324 0 323 -2665 0 -2665 0 0 -322
c0 -317 0 -322 -22 -345 l-21 -23 -686 0 -685 0 -23 22 -23 21 0 4111 0 4110
22 23 21 23 4096 0 4095 0 23 -22z"/>
<path d="M9680 9880 l0 -920 980 0 980 0 0 920 0 920 -980 0 -980 0 0 -920z"/>
<path d="M13050 9880 l0 -920 980 0 980 0 0 920 0 920 -980 0 -980 0 0 -920z"/>
<path d="M9680 6765 l0 -945 980 0 980 0 -2 943 -3 942 -977 3 -978 2 0 -945z"/>
<path d="M13057 7703 c-4 -3 -7 -429 -7 -945 l0 -938 980 0 980 0 0 945 0 945
-973 0 c-536 0 -977 -3 -980 -7z"/>
</g>
</svg>
