<?xml version="1.0" encoding="UTF-8"?>
<svg xmlns="http://www.w3.org/2000/svg" xmlns:xlink="http://www.w3.org/1999/xlink" width="512px" height="512px" viewBox="0 0 512 512" version="1.1" preserveAspectRatio="none"><filter id="blurMe">
    <feGaussianBlur in="SourceGraphic" stdDeviation="1" />
  </filter>
<g id="surface1">
<path style=" stroke:none;fill-rule:nonzero;fill:rgb(0%,0%,0%);fill-opacity:1;" d="M 32 80 C 32 53.492188 53.492188 32 80 32 L 176 32 C 202.507812 32 224 53.492188 224 80 L 224 176 C 224 202.507812 202.507812 224 176 224 L 80 224 C 53.492188 224 32 202.507812 32 176 Z M 288 80 C 288 53.492188 309.492188 32 336 32 L 432 32 C 458.507812 32 480 53.492188 480 80 L 480 176 C 480 202.507812 458.507812 224 432 224 L 336 224 C 309.492188 224 288 202.507812 288 176 Z M 32 336 C 32 309.492188 53.492188 288 80 288 L 176 288 C 202.507812 288 224 309.492188 224 336 L 224 432 C 224 458.507812 202.507812 480 176 480 L 80 480 C 53.492188 480 32 458.507812 32 432 Z M 288 336 C 288 309.492188 309.492188 288 336 288 L 432 288 C 458.507812 288 480 309.492188 480 336 L 480 432 C 480 458.507812 458.507812 480 432 480 L 336 480 C 309.492188 480 288 458.507812 288 432 Z M 288 336 " filter="url(#blurMe)"/>
</g>
</svg>
