<?xml version="1.0" encoding="UTF-8"?>
<svg xmlns="http://www.w3.org/2000/svg" xmlns:xlink="http://www.w3.org/1999/xlink" width="512px" height="512px" viewBox="0 0 512 512" version="1.1" preserveAspectRatio="none"><filter id="blurMe">
    <feGaussianBlur in="SourceGraphic" stdDeviation="1" />
  </filter>
<g id="surface1">
<path style=" stroke:none;fill-rule:nonzero;fill:rgb(0%,0%,0%);fill-opacity:1;" d="M 375.742188 331.007812 C 440.011719 243.3125 425.894531 120.914062 343.351562 50.148438 C 260.808594 -20.617188 137.691406 -15.875 60.839844 61.035156 C -16.011719 137.941406 -20.667969 261.0625 50.15625 343.554688 C 120.980469 426.046875 243.390625 440.074219 331.039062 375.742188 L 331.007812 375.742188 C 331.96875 377.023438 332.992188 378.238281 334.144531 379.425781 L 457.34375 502.625 C 469.839844 515.128906 490.105469 515.136719 502.609375 502.640625 C 515.113281 490.144531 515.117188 469.878906 502.625 457.375 L 379.425781 334.175781 C 378.28125 333.019531 377.050781 331.949219 375.742188 330.976562 Z M 384 208 C 384 305.203125 305.203125 384 208 384 C 110.796875 384 32 305.203125 32 208 C 32 110.796875 110.796875 32 208 32 C 305.203125 32 384 110.796875 384 208 Z M 384 208 " filter="url(#blurMe)"/>
</g>
</svg>
